# xmcd CD database file
# Generated: Sam Mai 10 23:44:20 2003 by KSCD
# 
# Track frame offsets:
#       150
#       11400
#       23838
#       34963
#       47198
#       58398
#       68258
#       78678
#       93080
#       104540
#       113953
#       124820
#       137490
#       149928
#
# Disc length: 2186 seconds
#
# Revision: 1
# Processed by: cddbd v1.4PL0 Copyright (c) Steve Scherf et al.
# Submitted via: Kscd 1.3.3
#
DISCID=c808880e
DTITLE=Diddley, Bo - Bo Diddley
DYEAR=1900
DGENRE=
TTITLE0=Bo Diddley
TTITLE1=I'm A Man
TTITLE2=Diddley Daddy
TTITLE3=Pretty Thing
TTITLE4=Who Do You Love
TTITLE5=Hey! So Diddley
TTITLE6=Mona (I Need You Baby)
TTITLE7=Say Man
TTITLE8=Bo's Guitra
TTITLE9=Cracklin' Up
TTITLE10=I'm Sorry
TTITLE11=The Story Of Bo Diddley
TTITLE12=Road Runner 3
TTITLE13=You Can't Judge A Book By Looking At The Cover
EXTD=
EXTT0=
EXTT1=
EXTT2=
EXTT3=
EXTT4=
EXTT5=
EXTT6=
EXTT7=
EXTT8=
EXTT9=
EXTT10=
EXTT11=
EXTT12=
EXTT13=
PLAYORDER=
